HIERARCHY
ROOT Hips
{
	OFFSET 0.000000 0.000000 0.000000
	CHANNELS 6 Xposition Yposition Zposition Zrotation Yrotation Xrotation 
	JOINT LHipJoint
	{
		OFFSET 0.000000 0.000000 0.000000
		CHANNELS 3 Zrotation Yrotation Xrotation
		JOINT LeftUpLeg
		{
			OFFSET 1.363060 -1.794630 0.839290
			CHANNELS 3 Zrotation Yrotation Xrotation
			JOINT LeftLeg
			{
				OFFSET 2.448110 -6.726130 0.000000
				CHANNELS 3 Zrotation Yrotation Xrotation
				JOINT LeftFoot
				{
					OFFSET 2.562200 -7.039590 0.000000
					CHANNELS 3 Zrotation Yrotation Xrotation
					JOINT LeftToeBase
					{
						OFFSET 0.157640 -0.433110 2.322550
						CHANNELS 3 Zrotation Yrotation Xrotation
						End Site
						{
							OFFSET 0.000000 0.000000 0.000000
						}
					}
				}
			}
		}
	}
	JOINT RHipJoint
	{
		OFFSET 0.000000 0.000000 0.000000
		CHANNELS 3 Zrotation Yrotation Xrotation
		JOINT RightUpLeg
		{
			OFFSET -1.305520 -1.794630 0.839290
			CHANNELS 3 Zrotation Yrotation Xrotation
			JOINT RightLeg
			{
				OFFSET -2.542530 -6.985550 0.000000
				CHANNELS 3 Zrotation Yrotation Xrotation
				JOINT RightFoot
				{
					OFFSET -2.568260 -7.056230 0.000000
					CHANNELS 3 Zrotation Yrotation Xrotation
					JOINT RightToeBase
					{
						OFFSET -0.164730 -0.452590 2.363150
						CHANNELS 3 Zrotation Yrotation Xrotation
						End Site
						{
							OFFSET 0.000000 0.000000 0.000000
						}
					}
				}
			}
		}
	}
	JOINT LowerBack
	{
		OFFSET 0.000000 0.000000 0.000000
		CHANNELS 3 Zrotation Yrotation Xrotation
		JOINT Spine
		{
			OFFSET 0.028270 2.035590 -0.193380
			CHANNELS 3 Zrotation Yrotation Xrotation
			JOINT Spine1
			{
				OFFSET 0.056720 2.048850 -0.042750
				CHANNELS 3 Zrotation Yrotation Xrotation
				JOINT Neck
				{
					OFFSET 0.000000 0.000000 0.000000
					CHANNELS 3 Zrotation Yrotation Xrotation
					JOINT Neck1
					{
						OFFSET -0.054170 1.746240 0.172020
						CHANNELS 3 Zrotation Yrotation Xrotation
						JOINT Head
						{
							OFFSET 0.104070 1.761360 -0.123970
							CHANNELS 3 Zrotation Yrotation Xrotation
							End Site
							{
								OFFSET 0.000000 0.000000 0.000000
							}
						}
					}
				}
				JOINT LeftShoulder
				{
					OFFSET 0.000000 0.000000 0.000000
					CHANNELS 3 Zrotation Yrotation Xrotation
					JOINT LeftArm
					{
						OFFSET 3.362410 1.200890 -0.311210
						CHANNELS 3 Zrotation Yrotation Xrotation
						JOINT LeftForeArm
						{
							OFFSET 4.983000 -0.000000 -0.000000
							CHANNELS 3 Zrotation Yrotation Xrotation
							JOINT LeftHand
							{
								OFFSET 3.483560 -0.000000 -0.000000
								CHANNELS 3 Zrotation Yrotation Xrotation
								JOINT LeftFingerBase
								{
									OFFSET 0.000000 0.000000 0.000000
									CHANNELS 3 Zrotation Yrotation Xrotation
									JOINT LeftHandIndex1
									{
										OFFSET 0.715260 -0.000000 -0.000000
										CHANNELS 3 Zrotation Yrotation Xrotation
										End Site
										{
											OFFSET 0.000000 0.000000 0.000000
										}
									}
								}
								JOINT LThumb
								{
									OFFSET 0.000000 0.000000 0.000000
									CHANNELS 3 Zrotation Yrotation Xrotation
									End Site
									{
										OFFSET 0.000000 0.000000 0.000000
									}
								}
							}
						}
					}
				}
				JOINT RightShoulder
				{
					OFFSET 0.000000 0.000000 0.000000
					CHANNELS 3 Zrotation Yrotation Xrotation
					JOINT RightArm
					{
						OFFSET -3.136600 1.374050 -0.404650
						CHANNELS 3 Zrotation Yrotation Xrotation
						JOINT RightForeArm
						{
							OFFSET -5.241900 -0.000000 -0.000000
							CHANNELS 3 Zrotation Yrotation Xrotation
							JOINT RightHand
							{
								OFFSET -3.444170 -0.000000 -0.000000
								CHANNELS 3 Zrotation Yrotation Xrotation
								JOINT RightFingerBase
								{
									OFFSET 0.000000 0.000000 0.000000
									CHANNELS 3 Zrotation Yrotation Xrotation
									JOINT RightHandIndex1
									{
										OFFSET -0.622530 -0.000000 -0.000000
										CHANNELS 3 Zrotation Yrotation Xrotation
										End Site
										{
											OFFSET 0.000000 0.000000 0.000000
										}
									}
								}
								JOINT RThumb
								{
									OFFSET 0.000000 0.000000 0.000000
									CHANNELS 3 Zrotation Yrotation Xrotation
									End Site
									{
										OFFSET 0.000000 0.000000 0.000000
									}
								}
							}
						}
					}
				}
			}
		}
	}
}
MOTION
Frames: 10
Frame Time: 0.008333
9.974140 17.870812 10.122671 -178.321302 -3.669357 -152.276963 9.340899 1.157262 -1.997746 -23.453665 -18.285323 -18.060332 -1.355265 3.905660 8.336896 0.791235 -1.013292 -17.223705 4.618600 -12.941000 -39.148000 -13.829359 -2.808497 -0.911454 29.800478 21.520862 -19.512569 1.255295 -5.083832 10.638252 -1.165110 -1.317421 -22.585307 -4.715200 13.055700 -39.577400 -3.236734 -0.073944 -26.140976 2.077489 -1.536866 -6.261302 0.598001 -1.579938 11.585620 -10.112118 -0.786430 -1.374927 13.254260 -4.584563 -2.065396 2.959800 -2.918800 -3.584400 15.388542 -2.652127 0.509077 -106.868126 -5.674086 12.716023 8.824089 -8.301226 -0.786802 -1.553139 1.588214 16.611635 19.816033 -9.652792 -4.230500 -7.125000 0.000000 0.000000 -3.745800 18.514000 2.367600 -10.641466 -1.185073 -0.493778 98.711069 -0.024894 10.263541 -12.321040 21.962992 -3.186132 0.639631 4.197968 -0.375621 -12.166876 -51.457507 10.640900 7.125000 0.000000 0.000000 76.873500 -76.566800 -63.087200 
9.973154 17.869061 10.127815 -178.350966 -3.733437 -152.293038 9.349779 1.151438 -1.998395 -23.466917 -18.439665 -18.010114 -1.351066 3.912199 8.351607 0.782791 -1.187429 -17.365268 4.123100 -12.322500 -36.882500 -13.822453 -2.802792 -0.921683 29.790666 21.581177 -19.315261 1.264084 -4.992698 10.436415 -1.163074 -1.384022 -22.555304 -4.629900 12.954500 -39.198500 -3.056001 -0.094970 -26.255722 2.008642 -1.559510 -6.204731 0.214677 -1.587711 11.759670 -9.029416 -0.879711 -0.926963 12.287842 -4.717156 -2.470757 2.399500 -3.038000 -3.935400 15.444904 -2.676139 0.536319 -106.656001 -5.744596 12.806020 8.904030 -8.441763 -0.806991 -1.595157 1.611269 16.259720 20.226927 -9.924029 -4.442400 -7.125000 0.000000 0.000000 -3.437100 18.166600 2.198100 -10.644905 -1.187038 -0.461158 99.001928 0.165257 10.280734 -12.227854 21.834335 -3.140694 0.625865 4.138115 -0.400346 -11.776151 -50.560888 10.187800 7.125000 0.000000 0.000000 73.003900 -76.277300 -59.064500 
9.972498 17.869389 10.132412 -178.333043 -3.696253 -152.282400 9.363979 1.150276 -1.998482 -23.449202 -18.542683 -18.065338 -1.356139 3.958319 8.447992 0.808895 -0.976093 -17.404268 4.325600 -12.581500 -37.821600 -13.820882 -2.791729 -0.930530 29.782346 21.597167 -19.304247 1.265554 -4.967718 10.369415 -1.154912 -1.373566 -22.476571 -4.576800 12.890800 -38.961000 -2.834517 -0.069068 -26.389676 1.930353 -1.537505 -6.154496 -0.112896 -1.586855 11.925842 -9.154743 -0.741340 -1.066518 12.005945 -4.379522 -1.626207 2.282000 -2.770400 -3.610400 15.447240 -2.640378 0.543144 -106.406304 -5.851483 13.135956 8.972365 -8.540929 -0.822783 -1.582711 1.565955 15.635266 19.999226 -9.855000 -4.350500 -7.125000 0.000000 0.000000 -3.620200 18.281100 2.306500 -10.693473 -1.126910 -0.432251 99.262477 0.373283 10.203807 -12.117840 21.698111 -3.090580 0.601728 4.093814 -0.353388 -11.239473 -49.984217 9.648400 7.125000 0.000000 0.000000 70.709600 -75.938300 -56.532400 
9.971513 17.868842 10.137228 -178.309472 -3.670104 -152.270927 9.388417 1.146380 -2.015753 -23.460983 -18.492074 -18.115674 -1.357639 3.975296 8.487573 0.817321 -0.863760 -17.355039 4.637300 -12.963400 -39.231500 -13.805601 -2.792159 -0.928308 29.763537 21.611186 -19.355576 1.264573 -4.975148 10.368907 -1.146542 -1.347877 -22.405361 -4.544900 12.852200 -38.817500 -2.524696 0.022524 -26.554694 1.810141 -1.451450 -6.090915 -0.624100 -1.526447 12.122313 -8.584695 -1.016980 -0.472918 12.235998 -4.980162 -2.703091 2.380800 -3.201200 -4.178300 15.479344 -2.745961 0.558452 -106.008704 -6.003359 13.834534 9.050488 -8.667429 -0.840090 -1.585523 1.481892 14.677582 19.751923 -9.619059 -4.178600 -7.125000 0.000000 0.000000 -3.812300 18.607600 2.401900 -10.753623 -1.226611 -0.423996 99.691025 0.525935 10.251795 -12.105127 21.693594 -3.078935 0.535063 4.042023 -0.333910 -10.067990 -49.487854 8.575000 7.125000 0.000000 0.000000 69.121100 -75.337800 -54.394100 
9.971075 17.868733 10.141826 -178.271734 -3.677058 -152.289026 9.399026 1.162648 -2.024725 -23.470327 -18.294343 -18.138705 -1.351065 3.945434 8.422370 0.785793 -1.044153 -17.217276 4.716400 -13.057100 -39.582600 -13.794753 -2.788533 -0.930861 29.802322 21.605948 -19.334824 1.265147 -4.960992 10.334437 -1.142133 -1.334260 -22.358664 -4.540200 12.846600 -38.796800 -2.166316 0.050851 -26.660771 1.700335 -1.455908 -6.042621 -1.145474 -1.529428 12.255719 -8.652370 -0.945145 -0.422898 11.944772 -4.755072 -1.880283 2.270000 -2.988000 -3.903900 15.491193 -2.709209 0.569460 -105.636870 -5.990274 14.592767 9.155202 -8.817636 -0.864214 -1.620464 1.409191 13.890733 19.845096 -9.330783 -4.065900 -7.125000 0.000000 0.000000 -3.735400 18.963600 2.323700 -10.843128 -1.187535 -0.394049 100.122749 0.644695 10.362626 -12.140687 21.798994 -3.108368 0.559793 4.032393 -0.208368 -10.350865 -49.688576 8.838700 7.125000 0.000000 0.000000 69.712600 -75.499400 -55.120000 
9.970746 17.870046 10.145766 -178.260720 -3.704286 -152.269092 9.402562 1.160027 -2.034847 -23.475915 -18.150640 -18.221139 -1.344351 3.931974 8.384609 0.755631 -1.202439 -17.075905 4.869700 -13.235500 -40.256700 -13.794403 -2.795173 -0.924148 29.808156 21.595682 -19.367900 1.266504 -4.944111 10.278421 -1.136283 -1.299361 -22.305012 -4.519800 12.821700 -38.704800 -2.161667 0.053717 -26.691069 1.709965 -1.462480 -6.041590 -1.143296 -1.521008 12.283824 -8.371402 -1.065795 -0.233305 12.262681 -5.079620 -2.746377 2.395900 -3.261500 -4.271900 15.509942 -2.775171 0.565496 -105.676034 -6.052704 14.855719 9.211690 -8.913835 -0.879906 -1.617047 1.395756 13.681635 19.778630 -9.361740 -4.060100 -7.125000 0.000000 0.000000 -3.790400 18.942500 2.359900 -10.832643 -1.249614 -0.404685 100.123987 0.678589 10.330995 -12.151743 21.804313 -3.111242 0.554971 4.048172 -0.052063 -10.135323 -50.000551 8.686100 7.125000 0.000000 0.000000 71.055800 -75.492800 -56.362900 
9.969761 17.870703 10.147736 -178.266969 -3.703856 -152.251107 9.403383 1.160579 -2.033386 -23.479789 -18.165623 -18.246223 -1.343445 3.935964 8.386442 0.751454 -1.213707 -17.046794 5.001800 -13.385800 -40.830300 -13.796867 -2.791578 -0.926858 29.786146 21.590822 -19.383723 1.267313 -4.928027 10.231867 -1.133088 -1.277120 -22.273454 -4.503400 12.801800 -38.630900 -2.149885 0.036703 -26.737765 1.710224 -1.482093 -6.035524 -1.151624 -1.537201 12.318453 -8.516186 -0.999160 -0.252709 12.134966 -4.906961 -2.158434 2.337700 -3.104500 -4.047500 15.506914 -2.760334 0.563385 -105.713851 -6.125199 15.029014 9.279645 -9.019308 -0.900271 -1.588451 1.398179 13.427004 19.558227 -9.557382 -4.090300 -7.125000 0.000000 0.000000 -3.974500 18.734800 2.493400 -10.839285 -1.208031 -0.392315 100.133413 0.785291 10.210832 -12.097617 21.724460 -3.085657 0.557533 4.040527 0.135864 -9.953729 -49.889929 8.516900 7.125000 0.000000 0.000000 70.691400 -75.393700 -55.912700 
9.968120 17.870265 10.151677 -178.228208 -3.635989 -152.217429 9.407403 1.150152 -2.035464 -23.405899 -18.287657 -18.241951 -1.348229 3.946818 8.406422 0.769075 -1.117723 -17.131038 4.875400 -13.242100 -40.281700 -13.798180 -2.787369 -0.921455 29.778047 21.620461 -19.491627 1.262000 -4.960874 10.287710 -1.129330 -1.152030 -22.235125 -4.503100 12.801300 -38.629300 -2.091317 0.095677 -26.775333 1.700717 -1.426956 -6.028765 -1.185799 -1.506560 12.348777 -8.356267 -1.101193 -0.270164 12.247093 -5.115481 -2.690865 2.382200 -3.274200 -4.244900 15.522529 -2.791472 0.551643 -105.751577 -6.199254 15.385820 9.375482 -9.171853 -0.926101 -1.583864 1.365334 13.071417 19.446857 -9.503621 -4.035600 -7.125000 0.000000 0.000000 -4.064400 18.822300 2.542100 -10.833905 -1.229899 -0.398171 100.136900 0.867287 10.165624 -12.047973 21.649177 -3.065961 0.582971 4.016133 0.129041 -10.270615 -49.423526 8.742100 7.125000 0.000000 0.000000 68.701200 -75.396000 -54.071100 
9.966368 17.870374 10.157478 -178.176240 -3.559670 -152.146439 9.405793 1.140022 -2.042777 -23.318212 -18.283635 -18.350425 -1.351338 3.961581 8.421791 0.775972 -1.067118 -17.160275 4.832500 -13.192600 -40.093900 -13.811658 -2.776240 -0.909500 29.773353 21.710805 -19.659929 1.258815 -5.012232 10.370554 -1.122031 -1.085820 -22.187831 -4.498100 12.795200 -38.606700 -2.091751 0.113030 -26.878071 1.737545 -1.426007 -6.030077 -1.056766 -1.514039 12.385969 -8.588939 -0.988539 -0.289605 12.089958 -4.883922 -2.129097 2.325700 -3.085700 -4.030800 15.517728 -2.774096 0.545963 -105.933084 -6.243941 15.688903 9.473197 -9.314621 -0.952037 -1.598948 1.345289 12.848005 19.531270 -9.447437 -4.026700 -7.125000 0.000000 0.000000 -3.998200 18.892300 2.494300 -10.821962 -1.189060 -0.387733 99.996570 0.922984 10.151799 -12.008108 21.582309 -3.049142 0.618753 3.972395 0.014787 -10.805291 -48.525985 9.099800 7.125000 0.000000 0.000000 64.926500 -75.329000 -50.557600 
9.965383 17.871688 10.160542 -178.179841 -3.587210 -152.148814 9.398100 1.137233 -2.052426 -23.332553 -18.168627 -18.384145 -1.348230 3.948084 8.389531 0.760375 -1.153074 -17.088906 4.953600 -13.331400 -40.622000 -13.821486 -2.780281 -0.906351 29.785211 21.756815 -19.632867 1.262372 -5.012117 10.369961 -1.123990 -1.167995 -22.221508 -4.484100 12.778200 -38.543700 -2.253698 0.062203 -26.966818 1.817061 -1.468535 -6.017257 -0.758276 -1.532708 12.511734 -8.564203 -0.989425 -0.269811 12.147970 -4.976377 -2.746577 2.366700 -3.199000 -4.276300 15.524321 -2.814128 0.539520 -106.211854 -6.364033 15.824233 9.545032 -9.426396 -0.970284 -1.625074 1.332422 12.941706 19.739790 -9.316557 -4.015300 -7.125000 0.000000 0.000000 -3.829400 19.037500 2.376100 -10.770149 -1.213470 -0.394426 99.732778 1.034765 10.045431 -11.960621 21.480118 -3.022494 0.641918 3.945270 0.030544 -11.027252 -47.857686 9.210100 7.125000 0.000000 0.000000 62.278100 -75.175600 -48.025600 
